<svg xmlns="http://www.w3.org/2000/svg" viewBox="0 0 128 128">
  <rect width="128" height="128" rx="28" fill="#5b3444"/>
  <circle cx="64" cy="60" r="39" fill="#d7a37a"/>
  <path d="M35 42c4-18 16-27 31-27 17 0 28 10 31 27-17-8-40-8-62 0z" fill="#6b3f26"/>
  <circle cx="50" cy="58" r="4" fill="#171717"/>
  <circle cx="78" cy="58" r="4" fill="#171717"/>
  <path d="M55 78q9 8 18 0" stroke="#7b3f35" stroke-width="4" fill="none" stroke-linecap="round"/>
  <path d="M54 70q10 7 20 0" stroke="#6b3f26" stroke-width="3" fill="none" stroke-linecap="round"/>
  <path d="M25 128c5-26 23-41 39-41s34 15 39 41z" fill="#a75d39"/>
  <path d="M31 119c18 8 48 8 66 0" stroke="rgba(255,255,255,.25)" stroke-width="5" fill="none"/>
</svg>
